# xmcd CD database file
# Copyright (C) 1997 Ti Kan
#
# Track frame offsets:
#  182
#  18222
#  38322
#
# Disc length: 759 seconds
#
# Revision: 1
# Processed by: cddbd v1.4b41PL1 Copyright (c) Steve Scherf et al.
# Submitted via: CDWizzard Release:4.31
#
DISCID=1002f503
DTITLE=Jimi Hendrix - All along the watchtower
DYEAR=1900
DGENRE=
TTITLE0=All along the watchtower
TTITLE1=Come on (Part 1)
TTITLE2=Star spangled banner
EXTD=
EXTT0=
EXTT1=
EXTT2=
PLAYORDER=
